{"title":"The Expendables 3 2014 Unrated.1080p.BluRay 5.1.x264 . NVEE","uid":12203177,"size":3015586853,"categoryP":"video","categoryS":"hd___movies","magnet":"?xt=urn:btih:3c114614e68e6ec0612ce8ab2e1c675fccaab1dd&amp;dn=The+Expendables+3+2014+Unrated.1080p.BluRay+5.1.x264+.+NVEE&amp;tr=udp%3A%2F%2Ftracker.openbittorrent.com%3A80&amp;tr=udp%3A%2F%2Fopen.demonii.com%3A1337&amp;tr=udp%3A%2F%2Ftracker.coppersurfer.tk%3A6969&amp;tr=udp%3A%2F%2Fexodus.desync.com%3A6969","seeders":19,"leechers":9,"uploader":".NVEE","files":4,"time":1438871708,"description":"\nQuick note : \nPlease seed to a Share Ratio of at least 3.3 \nIf you require a torrent release I have posted in the past, not seeding,... \nPlease do not hesitate to inform me in any means you find fit to do so. \nTorrent requests also &quot;Always Welcome.&quot; \n\n \nFULL_INFOs \n\n99.99% &gt;&gt;&gt; SYNCED GUARANTEED \n\n&quot;Totally scrutinized / analyzed to be a verified torrent.&quot; \n___________________________________________ \n\nSource : Blu-ray ~ 1080p \n\n \n\nSpoken Language : English \n\nAudio : 6 ~ Channels Only \n\n \nSubs Info : \n\nx3 ~ Multisubs .srt \nAll .srt UTF-8 .idx &amp; .ass subs can be turned On/Off \n_____________________________________ \n--------------------------------------------------------------------------------- \n \nGeneral Metadata \n\nComplete name : The Expendables 3 2014.Unrated.1080p.BluRay.5.1.x264 . NVEE.mp4 \nFormat : MPEG-4 \nFormat profile : Base Media \nCodec ID : isom \nFile size : 2.81 GiB \nDuration : 2h 11mn \nOverall bit rate : 3 057 Kbps \nEncoded date : UTC 2015-01-04 23:37:15 \nTagged date : UTC 2015-01-04 23:37:15 \n\n \nVideo \n\nID : 1 \nFormat : AVC \nFormat/Info : Advanced Video Codec \nFormat profile : &lt;a class=&quot;__cf_email__&quot; href=&quot;/cdn-cgi/l/email-protection&quot; data-cfemail=&quot;246c4d434c6468100a15&quot;&gt;[email&amp;#160;protected]&lt;/a&gt;&lt;script data-cfhash='f9e31' type=&quot;text/javascript&quot;&gt;\n/* &lt;![CDATA[ */!function(){try{var t=&quot;currentScript&quot;in document?document.currentScript:function(){for(var t=document.getElementsByTagName(&quot;script&quot;),e=t.length;e--;)if(t[e].getAttribute(&quot;data-cfhash&quot;))return t[e]}();if(t&amp;&amp;t.previousSibling){var e,r,n,i,c=t.previousSibling,a=c.getAttribute(&quot;data-cfemail&quot;);if(a){for(e=&quot;&quot;,r=parseInt(a.substr(0,2),16),n=2;a.length-n;n+=2)i=parseInt(a.substr(n,2),16)^r,e+=String.fromCharCode(i);e=document.createTextNode(e),c.parentNode.replaceChild(e,c)}t.parentNode.removeChild(t);}}catch(u){}}()/* ]]&gt; */&lt;/script&gt; \nFormat settings, CABAC : Yes \nFormat settings, ReFrames : 3 frames \nCodec ID : avc1 \nCodec ID/Info : Advanced Video Coding \nDuration : 2h 11mn \nBit rate : 2 416 Kbps \nMaximum bit rate : 16.7 Mbps \nWidth : 1 920 pixels \nHeight : 1 080 pixels \nDisplay aspect ratio : 16:9 \nFrame rate mode : Constant \nFrame rate : 23.976 fps \nColor space : YUV \nChroma subsampling : 4:2:0 \nBit depth : 8 bits \nScan type : Progressive \nBits/(Pixel*Frame) : 0.049 \nStream size : 2.22 GiB (79%) \nWriting library : x264 core 144 r2525 40bb568 \nEncoded from Physical Blu-ray / Region B \n\n \nAudio \n\nID : 2 \nFormat : AC-3 \nFormat/Info : Audio Coding 3 \nMode extension : CM (complete main) \nFormat settings, Endianness : Big \nCodec ID : ac-3 \nDuration : 2h 11mn \nBit rate mode : Constant \nBit rate : 640 Kbps \nChannel(s) : 6 channels \nChannel positions : Front: L C R, Side: L R, LFE \nSampling rate : 48.0 KHz \nBit depth : 16 bits \nCompression mode : Lossy \nStream size : 602 MiB (21%) \nLanguage : English \nEncoded date : UTC 2015-01-04 23:47:55 \nTagged date : UTC 2015-01-04 23:48:10 \nEncoded from Physical Blu-ray 6 Channel audio &quot;Always&quot;. \n\n \n\n \n\n \n\n\n\n\nEnj0y !","torrent":{"xt":"urn:btih:3c114614e68e6ec0612ce8ab2e1c675fccaab1dd","amp;dn":"The+Expendables+3+2014+Unrated.1080p.BluRay+5.1.x264+.+NVEE","amp;tr":["udp%3A%2F%2Ftracker.openbittorrent.com%3A80","udp%3A%2F%2Fopen.demonii.com%3A1337","udp%3A%2F%2Ftracker.coppersurfer.tk%3A6969","udp%3A%2F%2Fexodus.desync.com%3A6969"],"infoHash":"3c114614e68e6ec0612ce8ab2e1c675fccaab1dd","infoHashBuffer":{"type":"Buffer","data":[60,17,70,20,230,142,110,192,97,44,232,171,46,28,103,95,204,170,177,221]},"announce":[],"urlList":[]}}